# xmcd
#
# Track frame offsets: 
#        150
#        13726
#        23453
#        39014
#        55960
#        68547
#        84417
#        99510
#        113250
#        128818
#        142117
#        155214
#        167618
#        185650
#        198237
#
# Disc length: 2868 seconds
#
# Revision: 0
# Processed by: cddbd v1.5.2PL0 Copyright (c) Steve Scherf et al.
# Submitted via: ExactAudioCopy v0.99pb5
#
DISCID=b80b320f
DTITLE=Walden Dahl - Walden Dahl
DYEAR=1900
DGENRE=Country
TTITLE0=My Rose Of Old Kentucky
TTITLE1=City Lights
TTITLE2=Colleen Malone
TTITLE3=Shady Grove
TTITLE4=My Heart Has Turned to Stone
TTITLE5=Lit It Be Me
TTITLE6=Auctioneer
TTITLE7=Big Spike Hammer
TTITLE8=Devil Woman
TTITLE9=Oh, Susanna
TTITLE10=500 Miles
TTITLE11=Back In The Saddle Again
TTITLE12=Explanation Of the News
TTITLE13=Little Annie
TTITLE14=Streets of Japan
EXTD=
EXTT0=
EXTT1=
EXTT2=
EXTT3=
EXTT4=
EXTT5=
EXTT6=
EXTT7=
EXTT8=
EXTT9=
EXTT10=
EXTT11=
EXTT12=
EXTT13=
EXTT14=
PLAYORDER=
